{"title":"Secret City - S01E06 - The Light On The Hill","uid":15205439,"size":1258562051,"categoryP":"video","categoryS":"tv_shows","magnet":"?xt=urn:btih:81e686a5b5a17949bfac80b935c213a13594c9db&amp;dn=Secret+City+-+S01E06+-+The+Light+On+The+Hill&amp;tr=udp%3A%2F%2Ftracker.leechers-paradise.org%3A6969&amp;tr=udp%3A%2F%2Fzer0day.ch%3A1337&amp;tr=udp%3A%2F%2Fopen.demonii.com%3A1337&amp;tr=udp%3A%2F%2Ftracker.coppersurfer.tk%3A6969&amp;tr=udp%3A%2F%2Fexodus.desync.com%3A6969","seeders":6,"leechers":0,"uploader":"Bullrout","files":1,"time":1467620865,"description":"Secret City - S01E06 - The Light On The Hill\r\n\r\nHarriet's story on missing Chinese dissidents may have embarrassed Beijing into returning Sabine Hobbs to Canberra, but the connections to Australian intelligence and the murder remain hidden.\r\n\r\nComplete name                            : Secret City - S01E06 - The Light On The Hill.mkv\r\nFormat                                   : Matroska\r\nFormat version                           : Version 4 / Version 2\r\nFile size                                : 1.17 GiB\r\nDuration                                 : 51mn 49s\r\nOverall bit rate mode                    : Variable\r\nOverall bit rate                         : 3 238 Kbps\r\nEncoded date                             : UTC 2016-07-04 00:16:06\r\nWriting application                      : mkvmerge v9.2.0 ('Photograph') 64bit\r\nWriting library                          : libebml v1.3.3 + libmatroska v1.4.4\r\n\r\nVideo\r\nID                                       : 2\r\nFormat                                   : AVC\r\nFormat/Info                              : Advanced Video Codec\r\nFormat profile                           :   \r\nFormat settings, CABAC                   : Yes\r\nFormat settings, ReFrames                : 3 frames\r\nCodec ID                                 : V_MPEG4/ISO/AVC\r\nDuration                                 : 51mn 49s\r\nBit rate mode                            : Variable\r\nBit rate                                 : 2 852 Kbps\r\nMaximum bit rate                         : 3 000 Kbps\r\nWidth                                    : 1 280 pixels\r\nHeight                                   : 640 pixels\r\nDisplay aspect ratio                     : 2.000\r\nFrame rate mode                          : Constant\r\nFrame rate                               : 25.000 fps\r\nStandard                                 : PAL\r\nColor space                              : YUV\r\nChroma subsampling                       : 4:2:0\r\nBit depth                                : 8 bits\r\nScan type                                : Progressive\r\nBits/(Pixel*Frame)                       : 0.139\r\nStream size                              : 1.03 GiB (88%)\r\nWriting library                          : x264 core 112\r\nDefault                                  : Yes\r\nForced                                   : No\r\nColor range                              : Limited\r\nColor primaries                          : BT.709\r\nTransfer characteristics                 : BT.709\r\nMatrix coefficients                      : BT.709\r\n\r\nAudio\r\nID                                       : 1\r\nFormat                                   : AC-3\r\nFormat/Info                              : Audio Coding 3\r\nMode extension                           : CM (complete main)\r\nFormat settings, Endianness              : Big\r\nCodec ID                                 : A_AC3\r\nDuration                                 : 51mn 49s\r\nBit rate mode                            : Constant\r\nBit rate                                 : 384 Kbps\r\nChannel(s)                               : 6 channels\r\nChannel positions                        : Front: L C R, Side: L R, LFE\r\nSampling rate                            : 48.0 KHz\r\nFrame rate                               : 31.250 fps (1536 spf)\r\nCompression mode                         : Lossy\r\nStream size                              : 142 MiB (12%)\r\nDefault                                  : Yes\r\nForced                                   : No","torrent":{"xt":"urn:btih:81e686a5b5a17949bfac80b935c213a13594c9db","amp;dn":"Secret+City+-+S01E06+-+The+Light+On+The+Hill","amp;tr":["udp%3A%2F%2Ftracker.leechers-paradise.org%3A6969","udp%3A%2F%2Fzer0day.ch%3A1337","udp%3A%2F%2Fopen.demonii.com%3A1337","udp%3A%2F%2Ftracker.coppersurfer.tk%3A6969","udp%3A%2F%2Fexodus.desync.com%3A6969"],"infoHash":"81e686a5b5a17949bfac80b935c213a13594c9db","infoHashBuffer":{"type":"Buffer","data":[129,230,134,165,181,161,121,73,191,172,128,185,53,194,19,161,53,148,201,219]},"announce":[],"urlList":[]}}